<svg viewBox="0 0 39 111" fill="none" xmlns="http://www.w3.org/2000/svg" aria-hidden="true" class="w-[110%] text-aubergine dark:text-aubergine-25 -translate-x-1/2 pointer-events-none text-aubergine dark:text-aubergine-25 lg:scale-x-[-1] lg:rotate-[-22deg]" type="arrow" height="110"><defs><mask id="mask-path-0.05200492186008887"><path stroke="#fff" class="KickerArrow_maskPath__1jS0y" pathLength="100" d="M29.5 4.5C43 39 27 84 4 107L4 107L5.5 88.5L4 107L28 95" stroke-width="7.5"></path></mask></defs><g mask="url(#mask-path-0.05200492186008887)" fill="currentColor"><path d="M30.0325 4.14266C30.0325 3.90266 29.6326 4.04267 29.5526 4.02267C29.7026 4.41267 30.1625 4.14266 30.0325 4.14266Z"></path><path d="M31.5526 7.96268L31.3825 7.91266L31.8825 8.44266L31.5526 7.96268Z"></path><path d="M32.0925 11.6527C32.7425 11.2027 31.7826 10.3327 31.9326 9.65268L32.0825 9.52267L31.4725 9.30267C31.6725 10.0827 32.1625 11.0627 32.0925 11.6527Z"></path><path d="M30.8425 13.8427C31.1025 13.6827 31.1425 14.2327 30.8425 13.3727C30.8273 13.4056 30.8071 13.436 30.7825 13.4627C30.8137 13.5873 30.8338 13.7145 30.8425 13.8427Z"></path><path d="M30.8026 13.4627C30.7326 13.0827 30.6126 13.7527 30.8026 13.4627V13.4627Z"></path><path d="M31.2125 15.2227L30.9025 14.7527C30.7525 14.8827 30.7725 15.3327 30.6325 15.1827C30.8425 15.6827 30.9925 15.5527 31.2125 15.2227V15.2227Z"></path><path d="M31.7925 15.6327L31.6525 15.3827C31.5925 15.4427 31.5825 15.5127 31.7925 15.6327Z"></path><path d="M31.3625 14.8627L31.6525 15.3827C31.7625 15.2927 31.9925 15.2527 31.5425 15.1427C31.7625 15.1427 31.5425 15.0727 31.3625 14.8627Z"></path><path d="M31.4225 14.5227C31.5425 14.2227 31.5825 13.8327 31.9025 14.3127C31.6625 13.3527 31.1625 13.5627 31.4225 14.5227Z"></path><path d="M32.8425 11.7427L33.0026 11.3227L32.7125 11.0227C32.8525 11.1427 32.6325 11.7927 32.8425 11.7427Z"></path><path d="M31.3126 18.5227C31.4626 18.5227 31.6926 18.2927 31.8726 18.2227L31.6425 17.8727C31.5725 18.1427 31.5326 18.4627 31.3126 18.5227Z"></path><path d="M31.8726 18.2226L32.2025 18.7226C32.1625 18.2426 32.0426 18.1426 31.8726 18.2226Z"></path><path d="M32.5925 15.6127L31.9225 14.7727L32.6226 15.7827L32.5925 15.6127Z"></path><path d="M31.5526 20.5527L31.1725 20.2827L31.7625 20.7727L31.5526 20.5527Z"></path><path d="M31.7426 21.9127C31.4326 21.7127 31.2825 22.2627 31.0825 22.0427C31.2122 22.3957 31.4169 22.7164 31.6826 22.9827C31.614 22.8107 31.5838 22.6259 31.5941 22.4411C31.6045 22.2562 31.6552 22.0759 31.7426 21.9127Z"></path><path d="M32.0425 23.4427C31.9424 23.2748 31.8215 23.1202 31.6826 22.9827C31.7735 23.1567 31.8955 23.3126 32.0425 23.4427Z"></path><path d="M32.2526 19.6527C32.1597 19.701 32.0785 19.7689 32.0146 19.8518C31.9507 19.9347 31.9056 20.0306 31.8825 20.1327L32.2825 19.8727L32.2526 19.6527Z"></path><path d="M32.2526 19.6027V19.6527C32.2526 19.6527 32.3026 19.6127 32.2526 19.6027Z"></path><path d="M32.4225 17.1927C32.7125 17.4927 33.0725 18.1427 33.3225 17.4227C33.0025 17.2227 32.8525 17.6427 32.4225 17.1927Z"></path><path d="M32.7426 19.2727V18.6727C32.6326 18.6727 32.4825 18.8327 32.3425 18.6727L32.7426 19.2727Z"></path><path d="M32.9125 19.5327L32.7426 19.2727V19.4927L32.9125 19.5327Z"></path><path d="M32.3825 22.4126C32.5517 22.6576 32.6487 22.9452 32.6625 23.2427C32.7298 22.9139 32.75 22.5772 32.7225 22.2427C32.5825 22.1427 32.3325 22.0626 32.3825 22.4126Z"></path><path d="M32.3825 21.1427V21.1927C32.3825 21.1927 32.4525 21.1427 32.3825 21.1427Z"></path><path d="M32.8026 26.3427L32.8726 26.2927L32.8026 26.2827V26.3427Z"></path><path d="M32.7925 22.1427C32.8153 22.0445 32.8085 21.9417 32.7729 21.8474C32.7373 21.753 32.6745 21.6713 32.5925 21.6127C32.658 21.8072 32.7016 22.0085 32.7225 22.2127C32.7825 22.2327 32.8225 22.2327 32.7925 22.1427Z"></path><path d="M32.2926 24.2927C32.3745 24.1485 32.4447 23.9981 32.5026 23.8427C32.3726 23.9727 32.1626 24.2427 32.2926 24.2927Z"></path><path d="M32.3025 21.3227C32.1625 21.3727 32.2425 21.3627 32.3025 21.3227V21.3227Z"></path><path d="M32.3026 21.3227C32.3835 21.4368 32.4812 21.538 32.5925 21.6227C32.5467 21.4834 32.4863 21.3493 32.4125 21.2227L32.3026 21.3227Z"></path><path d="M35.5725 27.2427C35.4451 27.1973 35.3304 27.1222 35.2378 27.0235C35.1452 26.9248 35.0775 26.8055 35.0403 26.6755C35.0032 26.5454 34.9976 26.4083 35.0241 26.2756C35.0506 26.143 35.1083 26.0185 35.1926 25.9127C34.8826 25.3427 33.5926 25.7727 32.8726 26.2927C33.0526 26.2927 33.2125 26.2927 33.4625 26.8827C33.6725 26.6727 33.9226 25.5527 34.3026 26.0427C34.5226 26.8227 34.1825 26.6927 33.9825 27.0427C34.4725 26.7027 34.7226 28.0427 35.4326 27.8527L35.1725 27.1627C35.2825 27.1427 35.4725 27.4327 35.5725 27.2427V27.2427Z"></path><path d="M32.8825 25.1427L32.8325 24.9027C32.7265 25.2221 32.5486 25.5128 32.3126 25.7527C32.5226 26.1427 32.6726 26.2227 32.8026 26.2527V25.0627L32.8825 25.1427Z"></path><path d="M32.7625 23.8627C33.2025 24.0227 33.4225 24.5927 33.8625 24.2127C33.7925 23.5027 33.4825 23.7327 33.2625 23.3227C33.4425 24.4527 33.0126 23.0127 32.8126 23.8427C32.7369 23.65 32.6865 23.4483 32.6625 23.2427C32.6258 23.4467 32.5723 23.6474 32.5026 23.8427C32.5026 23.7927 32.5826 23.7727 32.5026 23.8427C32.4226 23.9127 32.5026 23.8427 32.5026 23.8427L32.6725 23.8927C32.6025 24.2227 32.5626 23.8927 32.5026 23.8427H32.4326L32.7426 24.9627C32.8046 24.5991 32.8113 24.2283 32.7625 23.8627Z"></path><path d="M34.3325 17.8927C34.3227 17.9077 34.3094 17.9201 34.2938 17.9289C34.2781 17.9376 34.2605 17.9423 34.2426 17.9427C34.3026 18.0127 34.3425 18.0327 34.3325 17.8927V17.8927Z"></path><path d="M34.1625 18.4126C34.0925 18.3326 33.9125 18.2927 33.9225 18.0127C33.9325 17.7327 34.1225 18.0126 34.2625 17.9426C34.1325 17.8026 33.8726 17.4126 33.7426 17.9426L33.8126 18.0127C33.7326 18.4927 33.2725 19.1527 33.2025 19.0827C33.566 18.9292 33.8931 18.7009 34.1625 18.4126Z"></path><path d="M33.6226 21.1427L33.9225 22.0827L34.2526 21.5627H34.0325C34.0625 21.1427 33.8026 21.2327 33.6226 21.1427Z"></path><path d="M32.5925 26.4527L32.1325 26.3427L32.7925 26.8727L32.5925 26.4527Z"></path><path d="M32.6725 27.6927L32.2725 27.6427L32.5125 27.9727L32.6725 27.6927Z"></path><path d="M15.7326 96.2227C15.7326 96.3227 15.6726 96.4227 15.6326 96.5227C15.6842 96.4297 15.7181 96.328 15.7326 96.2227Z"></path><path d="M17.0725 94.5227L16.9425 94.3626C16.9725 94.5126 17.0125 94.5927 17.0725 94.5227Z"></path><path d="M28.9326 57.7927C28.4826 58.0827 27.7826 58.3327 28.2326 58.4227H28.6826C28.6837 58.1887 28.7729 57.9638 28.9326 57.7927Z"></path><path d="M23.8326 78.4727L24.0026 78.4127L23.7426 77.9827L23.8326 78.4727Z"></path><path d="M25.3425 79.5027L24.8525 79.8827C25.0346 79.7822 25.1999 79.654 25.3425 79.5027Z"></path><path d="M4.01257 108.143L3.25256 109.353C3.96256 108.773 3.80257 108.613 4.01257 108.143Z"></path><path d="M32.2426 40.4027C32.0761 40.6629 31.9576 40.9507 31.8925 41.2527C32.1625 40.8527 32.5926 40.5527 32.2426 40.4027Z"></path><path d="M12.6226 92.7127C12.6226 92.8927 12.6226 93.0027 12.6926 93.0627C12.7326 92.8827 12.7326 92.7527 12.6226 92.7127Z"></path><path d="M31.7825 42.2627C31.8258 42.2084 31.8659 42.1517 31.9025 42.0927C31.8572 41.8145 31.8572 41.5308 31.9025 41.2527C31.7701 41.382 31.6861 41.5527 31.6642 41.7365C31.6424 41.9202 31.6841 42.1059 31.7825 42.2627V42.2627Z"></path><path d="M11.5026 98.4027H11.6126C11.6126 98.4027 11.5526 98.3627 11.5026 98.4027Z"></path><path d="M24.3026 98.4427C24.163 98.4951 24.0191 98.5353 23.8726 98.5627C24.024 98.5612 24.1723 98.5198 24.3026 98.4427Z"></path><path d="M34.1625 31.4327C34.1869 31.4658 34.2184 31.4929 34.2548 31.512C34.2912 31.531 34.3315 31.5415 34.3726 31.5427C34.2911 31.5342 34.2159 31.4949 34.1625 31.4327V31.4327Z"></path><path d="M34.1625 45.2327C34.2125 45.1927 34.1625 45.2027 34.1625 45.2327V45.2327Z"></path><path d="M32.6325 32.2827C32.5681 32.3843 32.5209 32.4958 32.4926 32.6127C32.5486 32.5069 32.5954 32.3965 32.6325 32.2827Z"></path><path d="M32.4225 32.3227V32.1027C32.4025 32.0627 32.3525 32.1427 32.4225 32.3227Z"></path><path d="M32.4325 33.0327C32.4314 32.8905 32.4516 32.7489 32.4925 32.6127C32.4925 32.6127 32.4325 32.6827 32.4225 32.6727C32.4125 32.6627 32.4325 32.8527 32.4325 33.0327V33.0327Z"></path><path d="M6.75256 94.3327V94.3927C6.89256 94.6827 6.86256 94.5527 6.75256 94.3327Z"></path><path d="M30.9825 66.8327C30.6125 66.2627 30.7525 66.0627 30.9825 65.8327L29.6926 65.7127L30.9825 66.8327Z"></path><path d="M11.6525 100.913C11.9625 100.783 12.2925 100.633 12.6525 100.463C11.9825 102.043 11.0226 102.703 12.1125 102.373C11.9126 101.623 12.7125 100.763 13.5125 99.9127C13.7125 99.6927 13.9125 99.4827 14.0925 99.2727C14.1947 99.1393 14.2757 98.9908 14.3325 98.8327C14.3924 98.7067 14.4101 98.5647 14.3831 98.4279C14.3561 98.291 14.2858 98.1665 14.1825 98.0727L14.7025 97.9027C14.6025 97.9927 14.7026 98.0627 14.5526 98.1527C15.6426 97.8827 14.2425 97.0026 15.1325 96.2426C15.4825 96.0126 15.7925 95.8926 15.7525 96.2426L16.0425 95.3127C16.2225 95.1227 16.3725 95.3127 16.1925 95.5127L16.9425 94.3527C16.913 93.9933 16.913 93.6321 16.9425 93.2727C17.3025 93.1027 16.9425 93.5027 17.1425 93.5227L17.3125 92.7127C17.7725 92.6627 17.7025 93.3827 17.3125 93.7827C18.8225 94.0027 17.3925 93.0627 18.9125 92.2627L18.6425 92.9527C19.5425 93.0127 19.6425 92.3927 20.5125 91.9527C20.1825 91.9527 18.5725 92.6327 18.7625 91.7527C18.9121 91.6643 19.0343 91.5362 19.1155 91.3827C19.1967 91.2291 19.2337 91.056 19.2225 90.8827C19.6225 91.1427 19.7525 90.7127 20.0225 90.2327L20.5425 90.6126C20.7025 90.0126 20.4025 89.8826 20.3425 89.4326C20.7425 88.9126 21.2425 89.0627 21.6825 89.1427C22.3225 88.3027 20.6225 89.3527 21.1725 88.2327C21.7415 87.5682 22.063 86.7273 22.0825 85.8527C22.5725 85.4427 22.3725 86.1427 22.6325 86.0427L22.4525 85.3227C22.5225 85.2127 22.6425 85.3227 22.7025 85.3827C22.7025 84.8927 22.1625 85.0427 22.3425 84.3827C21.8025 83.8927 23.9325 83.5927 23.6325 82.4427C23.8825 82.3327 23.9325 82.7127 24.1825 82.7627C24.2851 81.9999 24.2546 81.2251 24.0925 80.4727L24.8425 79.9027C24.1325 80.2527 23.9825 79.3026 23.8425 78.4926C23.6066 78.5545 23.3759 78.6348 23.1525 78.7327L23.2825 77.6126C23.4325 77.5426 23.5825 77.7327 23.7525 78.0027C23.7426 77.9181 23.7259 77.8345 23.7025 77.7527C24.0725 77.5027 24.3225 77.8426 24.5325 78.2426L24.0125 78.4326C24.2625 78.8426 24.5425 79.2526 24.9025 79.3626C24.8718 79.2311 24.8718 79.0942 24.9025 78.9627C24.9725 79.0727 25.0425 79.1527 25.1125 79.1527C25.1825 79.1527 25.1125 78.9826 25.0325 78.7426L25.7825 78.8227L25.5525 78.6427L26.5525 77.5227C26.3325 76.2927 25.6825 75.0527 26.0425 73.4627C26.3725 74.0327 26.8025 73.8627 27.3625 74.1227C26.5825 74.2827 27.1325 75.3927 26.6825 76.1227C26.9125 75.7427 27.1425 75.9527 27.1925 76.1227V74.5027C27.6525 74.7327 27.6725 74.3627 28.0225 74.0727C27.0225 73.9727 27.8225 72.7827 27.7625 72.0727C28.0825 72.1627 28.3525 72.4227 28.0025 73.0727C29.0025 72.5827 27.3025 71.6427 28.1925 71.1327C28.1325 71.3127 28.0525 71.3827 28.1925 71.5127C28.0725 71.0127 28.6625 70.1227 28.8525 70.4627L28.7925 70.6327C29.3325 69.5427 30.0925 67.1927 29.3425 66.7327C29.6928 66.9146 30.0273 67.1253 30.3425 67.3626L28.3425 64.3626C28.9725 64.7826 30.8625 64.6827 30.9025 65.7627C31.0529 65.6065 31.1661 65.4184 31.2336 65.2123C31.3012 65.0063 31.3213 64.7876 31.2925 64.5727C31.1325 64.7327 30.1425 64.6827 30.1625 64.4127C31.1625 63.9927 30.7426 64.0727 31.6926 63.4127C31.4426 63.6427 30.4726 62.9527 30.6926 62.5327C30.8226 62.6527 31.7725 62.8627 31.8225 63.0627L31.1425 61.6126C31.2325 61.9426 32.0325 61.9727 32.4125 61.8227C32.1625 61.8227 32.7325 60.8227 32.7225 60.5127L32.3225 60.9127C32.8825 59.6927 31.2326 59.2027 31.6226 57.9827C31.8026 58.2027 32.8925 58.7527 33.2025 58.1527C32.7225 57.6827 30.9125 56.1527 30.7225 54.9527L31.0925 54.8227L30.9225 53.9027C31.9512 54.9917 32.826 56.2164 33.5225 57.5427C33.9025 57.1327 33.9325 57.5427 34.1025 56.7827C34.4725 56.6027 34.4425 57.2927 34.4025 57.5127C34.6325 56.9627 34.8225 56.4126 35.0225 55.8626C34.3525 55.7826 34.6725 54.4127 34.1125 54.3527L34.3525 56.3527C33.8728 56.1249 33.4887 55.7355 33.2674 55.2527C33.0461 54.77 33.0019 54.2248 33.1425 53.7127C33.4825 53.4727 34.2625 54.1927 34.4825 54.2227C34.3025 54.0127 34.2925 52.9927 34.4825 52.9227L34.7225 53.5027C35.1125 52.8827 34.0726 52.2327 34.8726 51.5627C34.9726 51.3027 35.8726 50.9027 35.5026 50.7827C34.2519 51.0013 32.9644 50.8447 31.8025 50.3327C32.2087 49.7704 32.6784 49.257 33.2025 48.8026C33.8725 48.4526 34.4925 49.7226 35.0725 49.4326C34.8925 49.3826 34.7125 49.0927 34.6625 48.9727C34.8625 48.7127 35.2025 49.1927 35.2325 48.5427C34.5825 48.3327 35.5025 47.2727 34.7125 48.1527C34.6325 47.5127 34.9525 47.5227 35.0325 46.7927C34.5625 46.9527 33.6425 45.9227 33.5425 45.2927C33.7223 45.3237 33.9072 45.2881 34.0626 45.1927C34.3026 43.9527 34.6725 43.3127 34.8325 42.1427C35.0125 42.0527 35.2725 41.5027 35.5325 41.7827C35.3517 41.581 35.2458 41.3232 35.2325 41.0527C35.8925 40.4127 35.2326 41.8727 36.0026 41.4127C35.6126 41.3227 35.5525 40.4127 35.3525 39.8727C34.7325 39.9727 35.1225 41.0527 35.3525 41.6027C34.5125 41.5127 33.7225 40.5227 33.4525 39.2727C33.3325 38.2727 34.0326 38.9027 33.9326 38.7227C34.2126 36.9127 32.5725 37.0727 33.2825 35.6127C33.8525 35.0427 34.3526 35.6127 34.7526 35.5327C34.9126 36.3427 34.3226 36.7327 34.3126 37.2727L34.6125 36.6227C34.7083 36.7862 34.7652 36.9694 34.7791 37.1584C34.793 37.3473 34.7634 37.537 34.6926 37.7127C34.9929 37.1258 35.1375 36.4715 35.1125 35.8127C35.1318 34.937 35.2595 34.067 35.4926 33.2227C35.3326 32.9627 35.1526 32.5227 34.9326 32.7227L34.9926 33.1727C34.5426 33.5627 34.4225 32.3127 34.2025 32.8627C33.9838 32.5617 33.8278 32.2198 33.7436 31.8574C33.6594 31.4949 33.6488 31.1193 33.7125 30.7527L34.3325 30.6027C34.1525 30.6027 33.9525 31.1427 34.1325 31.3827C33.8725 31.0327 35.0026 30.1127 34.1926 29.7127L33.7625 30.2927C33.4625 29.6927 32.7626 28.9627 33.0026 28.2327C32.3926 28.5627 33.0725 28.4027 32.3625 28.9227C33.2425 28.4727 32.3626 30.7927 33.2526 30.0727C32.4226 30.6027 32.8825 31.0027 32.1625 31.6827C32.3625 31.6827 32.5526 31.4427 32.4426 32.0627C32.5097 32.0949 32.5681 32.1429 32.6125 32.2027C32.6843 32.071 32.7965 31.9658 32.9326 31.9027C33.3826 32.2227 33.3426 33.2027 33.5626 33.5527C33.4526 33.9127 33.3425 33.3827 33.1125 33.5527L33.4426 34.0727C32.9926 34.0727 32.6526 35.0127 32.4426 34.1327L32.3825 34.9027C32.2436 35.1162 32.1498 35.3558 32.1068 35.6069C32.0638 35.8579 32.0725 36.1151 32.1325 36.3627C32.0125 36.7227 32.5625 37.3627 32.2325 36.9827L32.4225 38.2127H32.3126C32.1526 39.4027 32.8225 40.7627 31.8625 42.0427C31.98 42.5388 31.9592 43.0575 31.8025 43.5427L31.4025 43.6227C31.4825 44.1627 30.8126 45.1127 31.1826 45.3827C30.0726 45.7827 30.5825 47.8327 30.2325 48.6927L30.7225 48.8127C30.6159 49.474 30.5991 50.1468 30.6725 50.8127H31.1226C31.3426 51.5427 30.4825 52.4527 30.2725 53.4827C30.1225 53.3727 30.2726 53.1227 30.3726 52.9627C29.0926 53.9627 30.4925 55.7427 29.4525 56.6527C29.4927 56.7696 29.4971 56.8958 29.465 57.0152C29.433 57.1346 29.3659 57.2417 29.2725 57.3227C29.2774 57.2962 29.2774 57.2691 29.2725 57.2426C29.2701 57.2826 29.2701 57.3227 29.2725 57.3626L28.9325 57.6727C29.0519 57.6071 29.16 57.5227 29.2526 57.4227C29.1941 57.7155 29.1706 58.0143 29.1826 58.3127H28.6825V58.3927C28.4125 58.6427 28.8225 58.7027 29.2225 58.6427C29.2418 58.8158 29.2891 58.9847 29.3625 59.1427C28.5425 59.1427 29.3625 60.0427 28.4625 60.1427C28.7925 60.4727 28.2125 61.8227 28.9625 62.2627C28.8525 62.2627 28.7725 62.2627 28.8225 62.1427C28.698 62.2747 28.6054 62.4334 28.5517 62.6067C28.4979 62.78 28.4845 62.9634 28.5125 63.1427L27.8825 63.0827L28.3825 64.0827C27.8625 64.4227 27.5925 64.5427 27.3125 63.9227C27.5925 65.2727 27.2425 64.9227 27.5825 66.1027L27.2225 65.9227C27.1125 66.2727 27.4225 66.9927 27.0325 67.0827C26.0325 67.5727 25.5225 70.7727 24.0925 72.4127C25.3225 72.4927 23.2325 73.0927 24.0325 73.5127C23.7325 73.5127 23.4825 73.7127 23.3925 73.3227C23.2225 74.3827 22.3925 74.5926 22.7825 75.5526C22.4825 75.5526 22.5025 75.1827 22.3125 75.2127C22.3125 75.3127 22.3925 75.6127 22.2025 75.6427C22.0125 75.6727 22.0525 75.4127 22.0125 75.2127C21.6125 76.2127 22.3425 76.6426 23.0125 77.0526C22.4425 77.3826 22.3825 77.6527 22.6925 78.2327C22.3725 78.2927 22.0025 78.4627 22.1925 77.8227C22.0125 78.1527 20.8525 79.7027 21.4125 80.0227C21.2125 80.0227 21.1325 80.4727 21.1625 80.5927C20.8479 81.0829 20.5673 81.5941 20.3225 82.1227L20.5225 81.9627C21.0525 82.6127 20.3525 82.6527 20.1225 83.2827L20.0625 83.2327C18.8625 84.3027 19.9825 83.9426 18.6825 84.9326L19.1425 85.1027C19.9525 85.7327 17.9625 85.9627 17.8325 86.8927L18.2425 86.7627C18.2425 87.3627 16.3325 87.1527 15.9825 87.4727C15.8525 87.4727 15.9825 87.2627 15.9825 87.1027C14.8225 87.8127 16.4325 87.5726 16.0625 88.4326C15.6825 88.4326 15.4625 87.7827 15.0625 88.2627C14.6625 88.3427 14.9525 90.3427 13.9325 90.6627C14.2525 90.6627 14.5725 90.6627 14.4825 91.1327C14.1625 91.7227 12.6225 91.9427 12.9225 92.9127C12.8873 92.9319 12.8477 92.942 12.8075 92.942C12.7673 92.942 12.7278 92.9319 12.6925 92.9127C12.5625 93.4527 11.9426 94.3927 12.0825 94.9127C11.3026 94.5527 10.9425 95.2927 10.6625 95.9627C10.5225 96.4327 10.2825 96.9627 9.93252 96.2827L9.39255 96.9627V96.7627C9.04255 96.9627 8.93252 97.5827 8.71252 98.3227C8.61252 98.2627 8.71252 97.9627 8.71252 97.8327C8.13252 97.9327 8.28255 97.9127 7.14255 99.9827L7.42254 98.9827C7.24254 99.3427 7.12254 99.1527 7.01254 98.9827C6.90254 98.8127 6.95254 98.9827 7.01254 98.8927C7.04627 98.7614 7.06968 98.6276 7.08255 98.4926C7.08255 98.2826 7.08254 98.1927 6.91254 98.2827C6.98095 98.1608 7.05782 98.0438 7.14255 97.9326C6.85255 98.0826 7.22252 96.9327 7.43252 96.3827C7.64252 95.8327 7.67254 95.6427 6.76254 96.1627C6.59231 96.0578 6.4431 95.9222 6.32254 95.7627C6.24254 96.2827 6.04254 96.4027 5.82254 96.4127C5.60254 96.4227 5.37253 96.3027 5.22253 96.6727C5.20575 96.3489 5.29724 96.0287 5.48254 95.7627C5.65254 95.5227 5.84254 95.4326 5.88254 95.6826L5.78253 95.8127C5.95801 95.7703 6.11433 95.6706 6.22665 95.5293C6.33898 95.388 6.40087 95.2132 6.40253 95.0327C6.46253 94.7027 6.47254 94.3827 6.79254 94.4027C6.833 92.9472 6.95316 91.495 7.15253 90.0526L3.41254 90.2327V93.6027L4.14255 93.3227V94.1727C4.14255 94.1727 3.57254 94.4626 3.60254 93.8626C3.19254 94.1726 3.94253 94.8626 4.09253 94.8626C3.74253 96.0326 3.25253 94.3727 3.22253 94.7327V95.2227L3.31253 95.1126C3.59253 95.5226 3.90253 95.5826 3.81253 96.3026C3.62253 96.7426 3.34254 96.4927 3.29254 96.6727C3.29254 96.6727 3.21254 96.6727 3.29254 96.9427L3.01254 98.4627C3.24254 98.2327 3.47253 98.0127 3.69253 97.8127C3.90253 98.4727 3.41254 99.2527 4.23254 98.4827C3.86115 98.8873 3.59047 99.3738 3.44253 99.9027C3.18066 100.61 2.95699 101.331 2.77252 102.063C2.72254 102.237 2.68249 102.414 2.65253 102.593V103.013V103.753C2.66322 104.053 2.62611 104.354 2.54254 104.643C2.75254 104.713 2.82255 104.923 2.83255 105.173C2.841 105.309 2.841 105.446 2.83255 105.583C2.82774 105.663 2.82774 105.743 2.83255 105.823C2.85058 105.93 2.8915 106.032 2.95254 106.123C2.94649 106.034 2.96041 105.944 2.99329 105.861C3.02616 105.778 3.07715 105.703 3.14255 105.643C3.27255 105.533 3.37254 105.593 3.66254 105.883C3.13254 106.313 3.38252 106.773 3.77252 106.883C4.16252 106.993 4.47253 106.813 4.44253 107.333C4.44253 107.023 4.88254 106.873 5.35254 106.663C5.82254 106.453 6.35252 106.083 6.21252 105.663C6.74252 105.563 5.97253 106.323 6.28253 106.603C6.69232 106.28 7.13082 105.995 7.59253 105.753C8.36844 105.285 9.16966 104.861 9.99252 104.483C10.4325 104.263 10.8825 104.043 11.3425 103.783L12.0325 103.383L12.3625 103.183L12.5725 103.033C12.5125 102.873 12.1125 102.793 12.3125 102.373L13.5526 102.673C13.8126 102.423 13.3425 101.673 14.1925 101.863C14.0425 101.773 13.8225 101.643 13.9925 101.483C15.6106 100.935 17.1994 100.304 18.7525 99.5927C20.4225 99.0527 22.3225 98.4227 24.0525 98.8427C23.5525 98.6127 23.8325 98.5127 24.1525 98.4227C23.9225 98.4227 24.0625 98.0027 23.9725 97.7727C24.4629 97.8786 24.9444 98.0224 25.4125 98.2027C25.4825 97.8527 25.8325 97.8127 26.1525 97.7927C26.4725 97.7727 26.7625 97.7926 26.8525 97.4926L26.4525 97.5827C26.7325 97.2127 26.5825 96.8027 26.2925 96.3527C26.0025 95.9027 25.5925 95.4726 25.6125 94.9926C25.2425 95.4326 24.7225 95.1826 24.1025 94.9926C23.8005 94.8488 23.4561 94.8213 23.1351 94.9154C22.8141 95.0095 22.5391 95.2185 22.3625 95.5027C22.0525 95.3827 22.5025 95.1427 22.3125 94.9727C22.1125 95.4527 21.7825 95.6227 21.0725 95.6427L21.1225 95.5227C20.4056 95.7924 19.6555 95.9639 18.8925 96.0327C18.0027 96.0843 17.1193 96.2148 16.2525 96.4227L16.5825 96.8127C16.2939 96.8867 15.9912 96.8867 15.7025 96.8127C15.4525 97.6827 16.9825 96.3527 16.7925 97.2727C16.3325 96.9327 15.5225 97.2727 14.7925 97.5627C14.0625 97.8527 13.3325 98.2027 12.8925 97.8127C12.2425 98.1427 13.3425 98.2027 12.6925 98.5327L12.3825 98.3626V98.7827C12.2121 98.8598 12.0205 98.8771 11.839 98.8317C11.6575 98.7863 11.4966 98.681 11.3825 98.5327C11.5025 98.5327 11.6425 98.3126 11.7425 98.2426C11.0225 98.2426 10.2926 99.2426 10.0526 99.2426L10.7425 99.0526L10.0125 99.5927C9.88254 99.6927 9.74254 99.7827 9.60254 99.8727C9.29693 100.048 9.00892 100.252 8.74252 100.483C8.45345 100.755 8.18599 101.049 7.94253 101.363L7.86255 101.673C7.37255 102.223 7.24252 102.243 7.18252 102.173C7.12252 102.103 7.09254 102.003 6.60254 102.403L6.69253 102.283C6.28253 102.813 5.79253 102.983 5.69253 102.663C5.94253 102.533 6.05253 102.193 6.22253 101.873C6.35354 101.574 6.55212 101.311 6.80255 101.103C6.62502 101.133 6.46097 101.216 6.33255 101.343C6.07404 101.591 5.78506 101.806 5.47253 101.983L6.01254 101.333C5.64254 101.553 5.42253 101.743 5.47253 101.253C5.60253 101.333 5.80254 101.073 6.01254 100.843C6.16798 100.621 6.38805 100.454 6.64255 100.363C7.25255 99.5326 7.05253 99.5226 6.94253 99.3626C6.83253 99.2026 6.76254 98.9627 7.41254 98.6227C6.41254 98.4627 6.65252 99.6227 6.46252 99.4727C6.25252 99.6827 6.06254 99.6926 5.95254 99.5526C5.89384 99.4595 5.85862 99.3535 5.84991 99.2438C5.8412 99.1341 5.85924 99.0239 5.90253 98.9227C5.95253 98.7027 6.32252 98.4727 6.68252 98.2327C7.04252 97.9927 7.38253 97.9127 7.44253 97.1327C7.44253 97.2727 7.50253 97.2927 7.44253 97.4227C7.76253 96.9327 7.18253 96.4227 7.65253 95.7927C7.05253 95.4127 7.72252 94.9827 6.93252 94.8527C6.98252 95.2627 7.03255 95.6827 7.05255 96.0927C6.90255 95.3727 6.05253 94.7127 6.44253 93.5827C6.65652 93.7601 6.82459 93.9865 6.93252 94.2426C7.17252 93.9126 6.78254 93.6026 7.01254 93.2426C7.81254 93.3226 7.20253 94.7427 7.75253 95.5327C8.11253 95.1627 7.22254 94.0627 8.07254 94.4627C6.99254 93.9027 8.22253 93.0927 7.34253 92.1927H7.81253C7.65389 91.9855 7.54138 91.7468 7.48254 91.4926L8.13254 91.9427C7.57254 91.2227 8.48254 90.4327 8.13254 89.7327C8.31254 91.2527 7.60254 90.1326 7.32254 90.8026C7.14215 90.5026 7.07811 90.1468 7.14255 89.8026L3.66254 89.9727C3.39254 90.5827 2.39252 90.5127 2.52252 91.9727C2.46252 91.7027 2.83254 90.9727 3.04254 91.4027C2.94793 91.8014 2.75933 92.1717 2.49252 92.4827C2.55252 93.7827 2.98254 92.2927 3.26254 92.8527C2.67254 93.2827 3.48253 93.4927 3.65253 94.0727H3.17255C3.1215 94.2615 3.10125 94.4574 3.11255 94.6527C3.10831 94.7878 3.12517 94.9227 3.16254 95.0526C3.18787 95.1226 3.23051 95.185 3.28647 95.2339C3.34243 95.2829 3.40989 95.3168 3.48254 95.3327C3.72254 95.4127 3.95252 95.4327 3.74252 96.4127C3.50869 96.2175 3.2913 96.0035 3.09253 95.7727L3.24252 96.7727H2.69253C3.00844 97.6614 3.03642 98.6271 2.77252 99.5327C3.12252 98.9927 3.66253 98.9827 3.65253 99.8527C3.35253 100.783 3.19254 99.9627 3.23254 101.253C2.92254 101.333 2.55252 101.313 3.02252 100.253C2.86252 100.343 2.72253 100.253 2.56253 100.253C2.40816 100.761 2.34056 101.292 2.36255 101.823C2.36255 102.303 2.46252 102.583 2.46252 102.823C2.47316 102.589 2.51007 102.358 2.57254 102.133C2.78127 102.498 3.01515 102.849 3.27252 103.183C3.10252 103.743 2.95255 103.733 2.80255 103.683C2.86255 104.013 3.09254 103.953 3.13254 104.443C2.75254 104.923 2.35254 105.623 2.13254 104.993C2.29254 105.463 2.44254 105.893 2.60254 106.293C2.45578 106.928 2.26532 107.553 2.03253 108.163C1.94101 108.688 2.04413 109.228 2.32254 109.683C2.88682 108.947 3.56145 108.303 4.32254 107.773C4.48982 107.512 4.67705 107.265 4.88254 107.033C5.88254 106.333 6.77255 106.203 8.11255 104.323C8.31605 104.473 8.53779 104.598 8.77252 104.693C9.30252 104.133 9.03255 104.063 8.89255 103.873C8.75255 103.683 8.70253 103.393 9.44253 102.573C10.4425 101.363 9.90255 102.973 10.3326 102.863C10.6026 102.353 10.9226 101.653 11.3326 101.063C11.6501 100.471 12.1571 100.002 12.7725 99.7327C12.4463 100.168 12.0705 100.564 11.6525 100.913V100.913ZM18.7525 91.8026C18.7525 92.0226 18.7525 92.5326 18.4325 92.4926C18.1625 91.9826 18.4225 91.9926 18.7525 91.8026ZM25.3025 77.4926C25.3825 77.6926 25.2225 77.8627 24.9425 78.0227C24.9926 77.8074 25.1209 77.6185 25.3025 77.4926ZM32.6826 35.5727C32.4926 36.0127 32.5726 35.8627 32.6826 35.5727V35.5727ZM32.9326 34.6927C32.9242 34.6748 32.9121 34.6589 32.8972 34.6461C32.8823 34.6332 32.8648 34.6236 32.8459 34.6179C32.8271 34.6123 32.8072 34.6106 32.7877 34.6132C32.7681 34.6157 32.7493 34.6224 32.7325 34.6327C32.8525 34.7027 32.8525 34.9027 32.8025 35.1327C32.9325 35.0727 33.0226 34.9627 32.9326 34.6927ZM3.35254 96.9926L3.49252 96.8327C3.59252 97.2227 3.48254 97.1426 3.35254 96.9926Z"></path><path d="M25.1626 79.3727C25.0703 79.393 24.9748 79.393 24.8826 79.3727C24.9326 79.4427 25.0226 79.4827 25.1626 79.3727Z"></path><path d="M4.16251 107.943C4.12609 108.006 4.09595 108.073 4.07251 108.143L4.16251 107.943Z"></path><path d="M35.4426 49.1427C35.3691 49.2747 35.2622 49.3851 35.1325 49.4627C35.2425 49.5027 35.3626 49.4327 35.4426 49.1427Z"></path><path d="M32.2625 29.9527L32.3825 30.5227C32.3696 30.3339 32.4306 30.1474 32.5526 30.0027C32.4426 30.0227 32.2725 30.1427 32.2625 29.9527V29.9527Z"></path><path d="M35.1625 24.9127C35.1025 24.8327 35.1625 24.7327 35.0825 24.6527H34.8525C34.9125 25.0427 35.0925 25.2927 35.1625 24.9127V24.9127Z"></path><path d="M33.8726 29.4327C34.2726 29.4327 34.1326 29.0227 34.0626 28.6227V28.6927C33.4926 28.5727 33.6826 29.0027 33.8726 29.4327V29.4327Z"></path><path d="M34.0526 28.5227C34.0326 28.4001 34.0326 28.2752 34.0526 28.1527C33.8126 28.1427 33.9926 28.3027 34.0526 28.5227Z"></path><path d="M32.7225 33.5427C32.8325 33.3627 32.2025 33.4027 32.3725 33.3027C31.8725 33.0727 32.9425 34.5927 32.7225 33.5427Z"></path><path d="M35.2025 29.1027L34.7025 29.2527L35.1125 29.4827L35.2025 29.1027Z"></path><path d="M34.7826 32.3227L34.9426 31.6727C34.8526 31.6727 34.8125 31.6027 34.7725 31.4927C34.7525 31.8927 34.6326 32.3327 34.7826 32.3227Z"></path><path d="M34.7725 31.4927C34.8053 31.3163 34.7808 31.1341 34.7025 30.9727C34.705 31.1482 34.7285 31.3228 34.7725 31.4927Z"></path><path d="M35.3625 30.0027L35.2526 30.1927L35.2025 30.6527L35.3625 30.0027Z"></path><path d="M34.2625 39.2927L34.3425 40.0127C34.5025 40.1027 34.6325 39.9227 34.5825 39.6527C34.5325 39.3827 34.4425 39.2027 34.2625 39.2927Z"></path><path d="M35.8026 37.2527C35.6826 37.4427 35.5725 37.4427 35.4025 37.5427L36.0225 37.6127L35.8026 37.2527Z"></path><path d="M35.7825 39.3526C35.9525 39.4426 36.1725 40.4427 36.2225 39.5227C36.0625 39.4427 35.9925 38.7126 35.7825 39.3526Z"></path><path d="M33.5725 49.9427L33.5925 49.7727L32.5925 49.6126L33.5725 49.9427Z"></path><path d="M33.7325 59.8826C34.2225 59.1126 33.1925 59.5026 33.7325 58.8826C33.5625 58.6226 33.3226 59.4327 33.1826 59.1727C33.2526 59.7027 33.0125 59.9226 33.7325 59.8826Z"></path><path d="M33.1625 59.1427C33.1428 59.041 33.116 58.9407 33.0825 58.8427C33.0893 58.9469 33.1165 59.0489 33.1625 59.1427Z"></path><path d="M25.9425 98.8127C26.0706 98.8718 26.1915 98.9456 26.3025 99.0327C26.2387 98.9103 26.1652 98.7932 26.0825 98.6826L25.9425 98.8127Z"></path><path d="M26.7426 98.1427V98.7927C26.8426 98.6127 26.9426 98.4327 27.0626 98.2527C26.9526 98.2227 26.7826 98.2527 26.7426 98.1427Z"></path><path d="M20.7125 91.2227L20.6025 91.0927C20.4225 91.0927 20.3325 91.1827 20.1725 91.3927L20.7125 91.2227Z"></path><path d="M15.7726 97.1727L15.8726 97.0727L15.2526 96.8927L15.7726 97.1727Z"></path><path d="M9.60253 104.633C9.97898 104.289 10.3362 103.925 10.6725 103.543C9.93254 104.453 9.44253 103.743 9.60253 104.633Z"></path></g></svg>